<svg width="42" height="36" viewBox="0 0 42 36" fill="none" xmlns="http://www.w3.org/2000/svg">
              <path d="M12.0985 11.3275C12.7699 13.4909 13.6206 15.2869 15.332 17.9056C10.8836 14.3528 7.96112 7.8286 6.812 0.758486C8.63549 1.00163 9.4755 1.58759 10.2357 3.60963C11.1614 6.0656 11.3151 8.816 12.0985 11.3275Z" fill="#5287E9"/>
              <path d="M17.0896 16.3616C14.4226 13.0896 13.438 8.42989 12.9057 3.35061C15.1929 3.65559 15.6695 6.61297 15.6571 8.39559C15.6321 12.33 17.0896 16.3616 17.0896 16.3616Z" fill="#5287E9"/>
              <path d="M8.56648 11.0682C10.5132 15.0472 12.3917 17.7139 16.2281 19.3991C17.4701 19.9452 19.0109 20.272 20.0399 19.3469C20.9123 18.5647 21.0549 17.1611 20.9201 15.933C20.7835 14.7047 20.4303 13.4839 20.5541 12.2559C20.6777 11.0298 21.3712 9.27476 22.5091 9.28078C25.0439 12.4741 26.5962 16.5745 26.8617 20.7745C26.9281 21.8073 26.9883 22.811 27.1299 23.783C27.3435 25.3008 27.7518 26.7374 28.6724 28.0804C29.9375 29.9247 31.7484 31.2225 33.6621 32.1333C36.105 33.2968 38.8118 33.8884 41.4961 33.8902C37.0831 35.6512 31.9439 35.7814 27.2762 34.2686C20.7186 32.1437 14.9407 27.4413 10.6555 21.6875C5.9569 15.3807 3.17396 7.54648 0.515207 0.0647833C5.91903 -0.279095 5.40001 4.57719 8.56648 11.0682Z" fill="#5287E9"/>
            </svg>