<svg width="117" height="102" viewBox="0 0 117 102" fill="none" xmlns="http://www.w3.org/2000/svg">
<path d="M97.1785 53.1557C97.1785 79.9603 75.4491 101.69 48.6444 101.69C21.8398 101.69 0.110352 79.9603 0.110352 53.1557C0.110352 26.351 21.8398 4.62158 48.6444 4.62158C75.4491 4.62158 97.1785 26.351 97.1785 53.1557ZM9.81717 53.1557C9.81717 74.5994 27.2007 91.9829 48.6444 91.9829C70.0881 91.9829 87.4717 74.5994 87.4717 53.1557C87.4717 31.712 70.0881 14.3284 48.6444 14.3284C27.2007 14.3284 9.81717 31.712 9.81717 53.1557Z" fill="#FBBF24"/>
<path d="M27.2461 46.3713L49.1647 68.2899L112.833 4.62158" stroke="#FBBF24" stroke-width="8.34995" stroke-linecap="round" stroke-linejoin="round"/>
</svg>
