<svg width="26" height="26" viewBox="0 0 26 26" fill="none" xmlns="http://www.w3.org/2000/svg">
<path d="M24.1049 13.5826C24.1049 12.6815 24.0303 12.0239 23.8689 11.342H13.3693V15.4091H19.5323C19.4081 16.4199 18.7371 17.942 17.246 18.9648L17.2251 19.101L20.5449 21.6213L20.7749 21.6438C22.8872 19.732 24.1049 16.9191 24.1049 13.5826" fill="#4285F4"/>
<path d="M13.3679 24.2988C16.3872 24.2988 18.922 23.3245 20.7735 21.6441L17.2446 18.9651C16.3003 19.6105 15.0329 20.061 13.3679 20.061C10.4106 20.061 7.9007 18.1493 7.00598 15.5068L6.87483 15.5177L3.42289 18.1358L3.37775 18.2588C5.2167 21.8389 8.99407 24.2988 13.3679 24.2988Z" fill="#34A853"/>
<path d="M7.00777 15.5069C6.77169 14.825 6.63506 14.0943 6.63506 13.3393C6.63506 12.5843 6.77169 11.8537 6.99535 11.1718L6.9891 11.0266L3.49389 8.36646L3.37953 8.41976C2.62161 9.90538 2.18671 11.5737 2.18671 13.3393C2.18671 15.105 2.62161 16.7732 3.37953 18.2588L7.00777 15.5069" fill="#FBBC05"/>
<path d="M13.3679 6.61771C15.4678 6.61771 16.8843 7.50663 17.692 8.24948L20.8481 5.22956C18.9098 3.46389 16.3873 2.38013 13.3679 2.38013C8.9941 2.38013 5.21671 4.83987 3.37775 8.41989L6.99358 11.1719C7.90072 8.52953 10.4107 6.61771 13.3679 6.61771" fill="#EB4335"/>
</svg>